<?xml version="1.0" standalone="no"?>
<!DOCTYPE svg PUBLIC "-//W3C//DTD SVG 20010904//EN"
 "http://www.w3.org/TR/2001/REC-SVG-20010904/DTD/svg10.dtd">
<svg version="1.0" xmlns="http://www.w3.org/2000/svg"
 width="512.000000pt" height="512.000000pt" viewBox="0 0 512.000000 512.000000"
 preserveAspectRatio="xMidYMid meet">
<metadata>
Created by potrace 1.14, written by Peter Selinger 2001-2017
</metadata>
<g transform="translate(0.000000,512.000000) scale(0.100000,-0.100000)"
fill="#000000" stroke="none">
<path d="M571 4402 c-50 -8 -103 -55 -146 -127 -27 -47 -63 -133 -70 -173 -3
-15 -7 -38 -10 -52 -11 -59 -14 -78 -20 -135 -14 -127 -6 -294 20 -420 31
-149 89 -267 158 -319 46 -35 96 -42 303 -40 211 2 241 13 306 119 34 56 88
217 88 264 0 7 -28 11 -78 11 l-78 0 -27 -88 c-15 -48 -38 -101 -51 -117 -21
-26 -26 -28 -41 -15 -100 83 -143 513 -75 758 23 82 55 155 76 173 40 33 108
-143 129 -333 l6 -58 -65 1 c-75 1 -112 -16 -122 -56 -8 -34 12 -80 41 -93 14
-7 112 -11 251 -11 125 0 229 -3 232 -6 4 -4 -21 -112 -75 -320 -13 -50 -43
-205 -48 -250 -3 -27 -8 -57 -10 -65 -5 -19 -13 -86 -20 -170 -3 -36 -8 -81
-10 -100 -3 -19 -7 -66 -10 -105 -2 -38 -7 -113 -11 -165 -12 -185 -11 -474 3
-593 17 -145 68 -350 121 -483 22 -54 86 -206 142 -337 129 -298 160 -338 292
-373 102 -26 224 11 296 90 l36 41 236 1 c129 1 244 4 255 7 11 2 45 8 75 11
400 46 886 230 1308 495 90 56 210 139 257 179 16 13 65 41 110 62 122 59 202
115 291 204 91 91 143 171 181 278 23 64 27 89 27 198 1 127 -3 161 -30 240
-50 147 -139 263 -289 376 -286 215 -660 236 -976 53 -85 -49 -204 -165 -263
-256 -25 -39 -46 -76 -46 -81 0 -5 17 -13 38 -17 131 -24 354 -121 376 -163
22 -43 1 -94 -44 -108 -32 -11 -41 -9 -100 21 -153 76 -324 116 -475 111 -218
-7 -382 -95 -500 -269 l-32 -47 -191 287 c-177 268 -230 362 -246 438 -3 17
-9 41 -12 55 -14 62 -6 185 16 243 28 74 65 116 157 178 121 82 230 205 273
308 10 25 18 31 44 32 78 1 340 -1 342 -4 1 -1 5 -20 8 -42 8 -66 20 -150 21
-155 24 -118 76 -236 126 -289 54 -56 77 -61 296 -62 226 -1 249 4 306 72 95
110 150 327 146 581 -3 260 -62 465 -160 560 -53 51 -85 58 -284 58 -100 0
-197 -3 -214 -6 -42 -9 -111 -71 -143 -131 -49 -89 -90 -262 -97 -406 -1 -16
-15 -17 -183 -15 l-183 3 -12 50 c-6 28 -21 95 -33 150 -27 125 -37 151 -74
193 -83 95 -190 99 -349 14 -98 -53 -127 -62 -237 -76 -25 -3 -67 -8 -95 -12
-104 -13 -167 -70 -234 -208 -21 -45 -41 -89 -44 -98 -5 -15 -21 -17 -117 -17
-97 0 -110 2 -110 17 -2 106 -48 301 -92 389 -34 68 -81 117 -132 138 -29 13
-363 18 -425 7z m2982 -215 c23 -46 41 -105 63 -202 3 -16 8 -102 9 -190 3
-126 -1 -180 -15 -251 -29 -139 -73 -244 -104 -244 -35 0 -100 183 -114 320
-8 85 -8 249 2 325 18 156 82 313 121 299 7 -3 25 -29 38 -57z"/>
<path d="M3452 3850 c-12 -12 -23 -30 -23 -40 -1 -11 -2 -26 -2 -32 -1 -7 2
-27 6 -45 11 -57 88 -76 130 -34 37 37 25 148 -18 165 -32 12 -71 6 -93 -14z"/>
</g>
</svg>
